<?xml version="1.0" encoding="UTF-8" standalone="no"?><!-- Generator: Gravit.io --><svg xmlns="http://www.w3.org/2000/svg" xmlns:xlink="http://www.w3.org/1999/xlink" style="isolation:isolate" viewBox="0 0 700 700" width="700pt" height="700pt"><defs><clipPath id="_clipPath_reGlmfjkzFn7v4yLoV5qeTQ8AkXBdI2G"><rect width="700" height="700"/></clipPath></defs><g clip-path="url(#_clipPath_reGlmfjkzFn7v4yLoV5qeTQ8AkXBdI2G)"><circle vector-effect="non-scaling-stroke" cx="350" cy="280" r="64" fill="none" stroke-width="3" stroke="rgb(0,0,0)" stroke-linejoin="miter" stroke-linecap="square" stroke-miterlimit="3"/><linearGradient id="_lgradient_0" x1="0" y1="0.5" x2="1" y2="0.5" gradientTransform="matrix(275.807,0,0,185,8.193,177)" gradientUnits="userSpaceOnUse"><stop offset="0%" stop-opacity="1" style="stop-color:rgb(255,0,150)"/><stop offset="100%" stop-opacity="1" style="stop-color:rgb(0,0,0)"/></linearGradient><path d=" M 52 177 L 284 241 Q 273 256.932 273 277 Q 273 297.068 284 313 L 36 362 Q -26.71 250.296 52 177 Z " fill="url(#_lgradient_0)" vector-effect="non-scaling-stroke" stroke-width="1" stroke="rgb(0,0,0)" stroke-linejoin="miter" stroke-linecap="square" stroke-miterlimit="3"/><linearGradient id="_lgradient_1" x1="0" y1="0.5" x2="1" y2="0.5" gradientTransform="matrix(-55.4,-270.186,181.23,-37.16,317.799,637.504)" gradientUnits="userSpaceOnUse"><stop offset="0%" stop-opacity="1" style="stop-color:rgb(255,0,150)"/><stop offset="100%" stop-opacity="1" style="stop-color:rgb(0,0,0)"/></linearGradient><path d=" M 309 594.589 L 325.095 354.462 Q 342.912 362.038 362.571 358.007 Q 382.23 353.976 395.628 340 L 493.443 573.103 Q 396.612 656.972 309 594.589 Z " fill="url(#_lgradient_1)"/><linearGradient id="_lgradient_2" x1="0" y1="0.5" x2="1" y2="0.5" gradientTransform="matrix(-223.113,-51.591,-24.3,105.09,654.939,291.377)" gradientUnits="userSpaceOnUse"><stop offset="0%" stop-opacity="1" style="stop-color:rgb(255,0,150)"/><stop offset="100%" stop-opacity="1" style="stop-color:rgb(0,0,0)"/></linearGradient><path d=" M 619.501 283.182 L 423.419 276.141 Q 427.026 288.47 424.39 299.87 Q 421.754 311.269 413.962 317.041 L 608.144 391.265 Q 673.545 339.541 619.501 283.182 Z " fill="url(#_lgradient_2)"/><linearGradient id="_lgradient_3" x1="0" y1="0.5" x2="1" y2="0.5" gradientTransform="matrix(-213.912,180.419,70.032,83.032,577.023,3.541)" gradientUnits="userSpaceOnUse"><stop offset="0%" stop-opacity="1" style="stop-color:rgb(255,0,150)"/><stop offset="100%" stop-opacity="1" style="stop-color:rgb(0,0,0)"/></linearGradient><path d=" M 543.047 32.198 L 387.338 212.685 Q 400.623 216.988 408 225 Q 415.377 233.012 414.594 245 L 625.488 104.764 Q 631.839 13.607 543.047 32.198 Z " fill="url(#_lgradient_3)"/></g></svg>